<?xml version="1.0" encoding="utf-8"?>
<!-- Generator: Adobe Illustrator 15.1.0, SVG Export Plug-In  -->
<!DOCTYPE svg PUBLIC "-//W3C//DTD SVG 1.1//EN" "http://www.w3.org/Graphics/SVG/1.1/DTD/svg11.dtd" [
	<!ENTITY ns_flows "http://ns.adobe.com/Flows/1.0/">
]>
<svg version="1.1"
	 xmlns="http://www.w3.org/2000/svg" xmlns:xlink="http://www.w3.org/1999/xlink" xmlns:a="http://ns.adobe.com/AdobeSVGViewerExtensions/3.0/"
	 x="0px" y="0px" width="15px" height="24px" viewBox="-0.375 -2 15 24"
	 overflow="visible" enable-background="new -0.375 -2 15 24" xml:space="preserve">
<defs>
</defs>
<polygon fill="#ffffff" points="0.608,14.05 0.721,9.771 0.983,9.525 1.02,8.034 0.721,7.723 0.721,7.207 4.095,7.207 4.095,7.723 
	3.794,8.034 3.832,9.525 4.099,9.771 4.203,14.05 "/>
<path fill="#ffffff" d="M1.037,6.727V6.208c0-0.843,0.619-1.437,1.369-1.437c0.754,0,1.369,0.593,1.369,1.437v0.519H1.037z"/>
<polygon fill="#ffffff" points="2.406,2.26 2.175,3.002 1.418,2.831 1.947,3.402 1.418,3.975 2.175,3.802 2.406,4.547 2.638,3.802 
	3.398,3.977 2.873,3.402 3.398,2.831 2.638,3.002 "/>
<polygon fill="#ffffff" points="14.761,14.05 14.656,9.771 14.39,9.525 14.353,8.034 14.652,7.723 14.652,7.207 11.281,7.207 
	11.281,7.723 11.58,8.034 11.541,9.525 11.277,9.771 11.173,14.05 "/>
<path fill="#ffffff" d="M14.337,6.727V6.208c0-0.843-0.621-1.437-1.375-1.437c-0.746,0-1.365,0.593-1.365,1.437v0.519H14.337z"/>
<polygon fill="#ffffff" points="12.962,2.26 13.199,3.002 13.958,2.831 13.429,3.402 13.958,3.975 13.199,3.802 12.962,4.547 
	12.736,3.802 11.976,3.977 12.505,3.402 11.976,2.831 12.736,3.002 "/>
<path fill="#ffffff" d="M9.833,14.05L9.691,8.721L9.97,8.416V7.753H5.406v0.663l0.275,0.305L5.535,14.05h1.324v-1.999
	c0-0.51,0.375-0.875,0.828-0.875c0.457,0,0.832,0.364,0.832,0.875v1.999H9.833z"/>
<polygon fill="#ffffff" points="9.509,7.295 9.474,6.1 9.75,5.833 9.75,4.95 8.914,4.95 8.914,5.712 8.089,5.712 8.089,4.961 
	7.279,4.961 7.279,5.712 6.46,5.712 6.46,4.95 5.623,4.95 5.623,5.833 5.9,6.1 5.865,7.295 "/>
<polygon fill="#ffffff" points="9.361,4.598 7.687,1.755 6.015,4.598 "/>
<path fill="#ffffff" d="M7.021,0.811C7,0.387,7.326,0.021,7.753,0.001C8.076-0.014,8.257,0.161,8.3,0.193
	c0.018,0.015,0.023,0.039,0.01,0.061c-0.01,0.018-0.039,0.02-0.059,0.01C8.201,0.24,8.134,0.193,7.974,0.201
	C7.662,0.218,7.423,0.48,7.441,0.79c0.014,0.308,0.277,0.55,0.586,0.532c0.16-0.01,0.227-0.063,0.271-0.088
	C8.32,1.219,8.345,1.219,8.363,1.24c0.01,0.015,0.01,0.04-0.008,0.057C8.316,1.335,8.156,1.523,7.83,1.542
	C7.406,1.562,7.042,1.236,7.021,0.811z"/>
<path fill="#ffffff" d="M7.683,22.107c1.439,0,2.52-1.041,2.816-2.094c0.15,1.111,1.223,1.473,2.127,0.981
	c0.506-0.275,0.988-0.75,1.318-1.443c0.018-0.03,0.018-0.071-0.016-0.09c-0.023-0.019-0.062-0.004-0.08,0.027
	c-0.244,0.35-0.535,0.641-0.873,0.741c-1.188,0.371-2.252-0.418-2.396-1.528c-0.006-0.043-0.027-0.066-0.062-0.07
	c-0.035,0-0.049,0.023-0.061,0.065c-0.287,1.107-1.381,2.066-2.771,2.066c-1.389,0-2.48-0.959-2.766-2.066
	c-0.016-0.042-0.031-0.065-0.066-0.065c-0.039,0.004-0.053,0.027-0.057,0.07c-0.15,1.11-1.215,1.899-2.402,1.528
	c-0.336-0.102-0.625-0.393-0.869-0.741c-0.021-0.031-0.06-0.046-0.081-0.027c-0.03,0.019-0.027,0.06-0.015,0.09
	c0.33,0.693,0.814,1.168,1.318,1.443c0.902,0.489,1.977,0.13,2.123-0.981C5.171,21.066,6.244,22.107,7.683,22.107z"/>
<path fill="#ffffff" d="M7.683,16.966c-1.48,0-2.471-0.959-2.855-2c-0.6,2.136-3.311,2.543-4.249,1.07
	C0.224,15.482,0.065,14.691,0,13.957c0-0.031,0.014-0.072,0.049-0.078c0.024-0.008,0.056,0.021,0.066,0.059
	c0.241,0.935,0.703,1.238,1.293,1.455c1.421,0.517,3.068-0.194,3.373-1.778c0.008-0.046,0.021-0.071,0.057-0.071
	c0.037,0,0.053,0.025,0.061,0.066c0.24,1.086,1.428,1.978,2.785,1.978c1.367,0,2.551-0.892,2.793-1.978
	c0.006-0.041,0.021-0.066,0.057-0.066c0.037,0,0.053,0.025,0.062,0.071c0.297,1.584,1.947,2.295,3.371,1.778
	c0.588-0.217,1.051-0.521,1.291-1.455c0.012-0.037,0.039-0.065,0.068-0.059c0.033,0.006,0.049,0.047,0.045,0.078
	c-0.07,0.734-0.225,1.525-0.578,2.08c-0.936,1.473-3.648,1.064-4.248-1.07C10.156,16.007,9.171,16.966,7.683,16.966z"/>
<path fill="#ffffff" d="M7.683,19.535c1.439,0,2.604-1.023,2.834-2.184c0.277,1.821,2.641,2.582,3.777,1.241
	c0.428-0.504,0.656-1.215,0.777-1.964c0.008-0.031-0.004-0.072-0.037-0.082c-0.029-0.007-0.061,0.018-0.07,0.053
	c-0.252,0.803-0.635,1.181-1.213,1.381c-1.523,0.524-2.912-0.528-3.156-1.846c-0.012-0.043-0.025-0.068-0.062-0.072
	c-0.035,0-0.057,0.021-0.061,0.065c-0.145,0.739-1.121,2.024-2.789,2.024c-1.66,0-2.643-1.285-2.779-2.024
	c-0.01-0.045-0.029-0.065-0.064-0.065c-0.035,0.004-0.049,0.029-0.057,0.072c-0.254,1.316-1.637,2.37-3.164,1.846
	c-0.575-0.2-0.956-0.578-1.208-1.381c-0.016-0.035-0.043-0.06-0.07-0.053c-0.035,0.01-0.049,0.051-0.043,0.082
	c0.123,0.749,0.354,1.46,0.781,1.964c1.135,1.341,3.5,0.58,3.772-1.241C5.085,18.511,6.244,19.535,7.683,19.535z"/>
</svg>
